<mxfile host="app.diagrams.net" agent="Mozilla/5.0 (Windows NT 10.0; Win64; x64) AppleWebKit/537.36 (KHTML, like Gecko) Chrome/140.0.0.0 Safari/537.36" version="28.2.5">
  <diagram name="Página-1" id="6HJWCoaYQ37QXLlauOAN">
    <mxGraphModel dx="1188" dy="648" grid="1" gridSize="10" guides="1" tooltips="1" connect="1" arrows="1" fold="1" page="1" pageScale="1" pageWidth="827" pageHeight="1169" math="0" shadow="0">
      <root>
        <mxCell id="0" />
        <mxCell id="1" parent="0" />
        <mxCell id="Lo3eXL98znN5Ijs_LKKe-2" value="V" style="ellipse;html=1;shape=startState;fillColor=#000000;strokeColor=#ff0000;" vertex="1" parent="1">
          <mxGeometry x="390" y="60" width="30" height="30" as="geometry" />
        </mxCell>
        <mxCell id="Lo3eXL98znN5Ijs_LKKe-3" value="" style="edgeStyle=orthogonalEdgeStyle;html=1;verticalAlign=bottom;endArrow=open;endSize=8;strokeColor=#ff0000;rounded=0;" edge="1" source="Lo3eXL98znN5Ijs_LKKe-2" parent="1">
          <mxGeometry relative="1" as="geometry">
            <mxPoint x="405" y="150" as="targetPoint" />
          </mxGeometry>
        </mxCell>
        <mxCell id="Lo3eXL98znN5Ijs_LKKe-5" value="Eleitor" style="text;html=1;align=center;verticalAlign=middle;resizable=0;points=[];autosize=1;strokeColor=none;fillColor=none;" vertex="1" parent="1">
          <mxGeometry x="375" y="40" width="60" height="30" as="geometry" />
        </mxCell>
        <mxCell id="Lo3eXL98znN5Ijs_LKKe-6" value="Fornece todos os documentos para o mesário" style="html=1;whiteSpace=wrap;" vertex="1" parent="1">
          <mxGeometry x="350" y="150" width="110" height="50" as="geometry" />
        </mxCell>
        <mxCell id="Lo3eXL98znN5Ijs_LKKe-7" value="Condition" style="rhombus;whiteSpace=wrap;html=1;fontColor=#000000;fillColor=#ffffc0;strokeColor=#ff0000;" vertex="1" parent="1">
          <mxGeometry x="370" y="200" width="80" height="40" as="geometry" />
        </mxCell>
        <mxCell id="Lo3eXL98znN5Ijs_LKKe-8" value="Documentos não&lt;div&gt;&amp;nbsp;válidos&lt;/div&gt;" style="edgeStyle=orthogonalEdgeStyle;html=1;align=left;verticalAlign=bottom;endArrow=open;endSize=8;strokeColor=#ff0000;rounded=0;" edge="1" source="Lo3eXL98znN5Ijs_LKKe-7" parent="1">
          <mxGeometry x="-0.6" y="10" relative="1" as="geometry">
            <mxPoint x="560" y="220" as="targetPoint" />
            <mxPoint as="offset" />
          </mxGeometry>
        </mxCell>
        <mxCell id="Lo3eXL98znN5Ijs_LKKe-9" value="Documentos válidos" style="edgeStyle=orthogonalEdgeStyle;html=1;align=left;verticalAlign=top;endArrow=open;endSize=8;strokeColor=#ff0000;rounded=0;" edge="1" source="Lo3eXL98znN5Ijs_LKKe-7" parent="1">
          <mxGeometry x="-1" relative="1" as="geometry">
            <mxPoint x="410" y="300" as="targetPoint" />
          </mxGeometry>
        </mxCell>
        <mxCell id="Lo3eXL98znN5Ijs_LKKe-10" value="Impedido de realizar o voto" style="html=1;whiteSpace=wrap;" vertex="1" parent="1">
          <mxGeometry x="560" y="195" width="110" height="50" as="geometry" />
        </mxCell>
        <mxCell id="Lo3eXL98znN5Ijs_LKKe-13" style="edgeStyle=orthogonalEdgeStyle;rounded=0;orthogonalLoop=1;jettySize=auto;html=1;entryX=0.5;entryY=0;entryDx=0;entryDy=0;" edge="1" parent="1" source="Lo3eXL98znN5Ijs_LKKe-11" target="Lo3eXL98znN5Ijs_LKKe-12">
          <mxGeometry relative="1" as="geometry" />
        </mxCell>
        <mxCell id="Lo3eXL98znN5Ijs_LKKe-11" value="Vai até a urna" style="html=1;whiteSpace=wrap;" vertex="1" parent="1">
          <mxGeometry x="355" y="300" width="110" height="50" as="geometry" />
        </mxCell>
        <mxCell id="Lo3eXL98znN5Ijs_LKKe-24" style="edgeStyle=orthogonalEdgeStyle;rounded=0;orthogonalLoop=1;jettySize=auto;html=1;entryX=0.5;entryY=0;entryDx=0;entryDy=0;" edge="1" parent="1" source="Lo3eXL98znN5Ijs_LKKe-12" target="Lo3eXL98znN5Ijs_LKKe-14">
          <mxGeometry relative="1" as="geometry" />
        </mxCell>
        <mxCell id="Lo3eXL98znN5Ijs_LKKe-12" value="Realiza o voto" style="html=1;whiteSpace=wrap;" vertex="1" parent="1">
          <mxGeometry x="355" y="400" width="110" height="50" as="geometry" />
        </mxCell>
        <mxCell id="Lo3eXL98znN5Ijs_LKKe-14" value="Confirma o voto" style="html=1;whiteSpace=wrap;" vertex="1" parent="1">
          <mxGeometry x="355" y="500" width="110" height="50" as="geometry" />
        </mxCell>
        <mxCell id="Lo3eXL98znN5Ijs_LKKe-25" value="Condition" style="rhombus;whiteSpace=wrap;html=1;fontColor=#000000;fillColor=#ffffc0;strokeColor=#ff0000;" vertex="1" parent="1">
          <mxGeometry x="370" y="550" width="80" height="40" as="geometry" />
        </mxCell>
        <mxCell id="Lo3eXL98znN5Ijs_LKKe-26" value="Se há mais cargos para&amp;nbsp;&lt;div&gt;votação&lt;/div&gt;" style="edgeStyle=orthogonalEdgeStyle;html=1;align=left;verticalAlign=bottom;endArrow=open;endSize=8;strokeColor=#ff0000;rounded=0;entryX=1;entryY=0.5;entryDx=0;entryDy=0;exitX=1;exitY=0.5;exitDx=0;exitDy=0;" edge="1" source="Lo3eXL98znN5Ijs_LKKe-25" parent="1" target="Lo3eXL98znN5Ijs_LKKe-12">
          <mxGeometry x="-0.9024" relative="1" as="geometry">
            <mxPoint x="550" y="420" as="targetPoint" />
            <Array as="points">
              <mxPoint x="610" y="570" />
              <mxPoint x="610" y="425" />
            </Array>
            <mxPoint as="offset" />
          </mxGeometry>
        </mxCell>
        <mxCell id="Lo3eXL98znN5Ijs_LKKe-27" value="Todos os cargos foram&lt;div&gt;&amp;nbsp;votados&lt;/div&gt;" style="edgeStyle=orthogonalEdgeStyle;html=1;align=left;verticalAlign=top;endArrow=open;endSize=8;strokeColor=#ff0000;rounded=0;" edge="1" source="Lo3eXL98znN5Ijs_LKKe-25" parent="1">
          <mxGeometry x="-1" relative="1" as="geometry">
            <mxPoint x="410" y="650" as="targetPoint" />
          </mxGeometry>
        </mxCell>
        <mxCell id="Lo3eXL98znN5Ijs_LKKe-32" value="" style="ellipse;html=1;shape=endState;fillColor=#000000;strokeColor=#ff0000;" vertex="1" parent="1">
          <mxGeometry x="395" y="650" width="30" height="30" as="geometry" />
        </mxCell>
        <mxCell id="Lo3eXL98znN5Ijs_LKKe-33" value="Fim da votação" style="text;html=1;align=center;verticalAlign=middle;resizable=0;points=[];autosize=1;strokeColor=none;fillColor=none;" vertex="1" parent="1">
          <mxGeometry x="355" y="678" width="110" height="30" as="geometry" />
        </mxCell>
      </root>
    </mxGraphModel>
  </diagram>
</mxfile>
